<svg width="238" height="262" viewBox="0 0 238 262" fill="none" xmlns="http://www.w3.org/2000/svg">
<path d="M105.807 239.303C105.807 239.303 113.175 249.122 114.24 249.905C120.722 254.672 130.18 258.68 138.193 259.052C142.81 259.267 157.344 258.934 163 255.5" stroke="#C84630" stroke-width="5.5" stroke-linecap="round"/>
<path d="M157.723 212.109C157.723 212.109 159.26 217.52 159.481 218.042C160.873 221.333 163.142 223.956 165.634 226.447C167.256 228.07 167.464 232.248 167.584 234.413C167.994 241.797 164.904 248.152 163.161 255.125" stroke="#C84630" stroke-width="5.5" stroke-linecap="round"/>
<path d="M128.991 250C126.191 244.443 129.765 235.573 134.219 231.413C135.424 230.287 137.713 229.331 138.614 228.278C139.365 227.402 143.837 228.862 144.852 229.027C149.868 229.846 154.962 230.319 160 231.025" stroke="#C84630" stroke-width="5.5" stroke-linecap="round"/>
<path d="M83 93C83 93 82.255 120.011 87.5134 130.528C92.0564 139.614 100.182 145.969 108.774 151.047C115.034 154.746 118.776 157.705 121.135 164.644C123.528 171.684 124.101 178.338 124.101 185.904" stroke="#C84630" stroke-width="5.5" stroke-linecap="round"/>
<path d="M148.313 213.961C147.165 214.111 149.495 213.801 150.212 213.552C154.624 212.014 158.745 207.105 162.165 203.945C168.385 198.197 180.2 192.784 183 184" stroke="#C84630" stroke-width="5.5" stroke-linecap="round"/>
<path d="M122 193C122 186.488 130.905 178.966 134.864 175.935C139.99 172.012 149.414 165.802 155 170.961" stroke="#C84630" stroke-width="5.5" stroke-linecap="round"/>
<path d="M160 179C161.729 180.921 162.483 183.6 163.461 185.922" stroke="#C84630" stroke-width="5.5" stroke-linecap="round"/>
<path d="M217 133.5C217 158 206.61 159.888 202 171C200.963 173.5 193.937 190.598 187.608 193.705C184.522 195.22 174.5 195 174.5 195" stroke="#C84630" stroke-width="5.5" stroke-linecap="round"/>
<path d="M190 84C190 86.1553 192.369 88.5074 193.622 90.4134C197.115 95.7251 201.864 100.673 205.402 105.962C211.318 114.804 214.311 123.674 217 133" stroke="#C84630" stroke-width="5.5" stroke-linecap="round"/>
<path d="M42.5 97.5C37.7541 97.0254 46.6602 101.12 48 101.5C58.5164 104.48 70.6232 106.945 81.0877 103.021" stroke="#C84630" stroke-width="5.5" stroke-linecap="round"/>
<path d="M136 3.60542C136 2.13143 138.196 3.76229 139.084 4.15953C142.948 5.88714 146.497 10.6635 147.29 14.7984C148.485 21.0259 148.103 27.9122 146.657 34.0537C145.941 37.0948 144.922 40.8735 144.922 44" stroke="#C84630" stroke-width="5.5" stroke-linecap="round"/>
<path d="M157.228 55.3743C154.786 55.2217 155.941 50.7769 156.239 49.3862C157.451 43.7335 161.956 38.8172 166.183 35.1576C172.897 29.3444 186.653 22.0356 195.19 28.675C203.047 34.7868 204.464 44.399 202.221 53.6164C200.772 59.5738 199.539 65.3693 196.398 70.7017C194.055 74.6794 190.98 80.0703 189.861 84.5458" stroke="#C84630" stroke-width="5.5" stroke-linecap="round"/>
<path d="M75.1416 80.5C75.1416 80.5 75.0477 75.299 75.1416 74.068C75.7459 66.1431 80.5083 57.119 84.9285 51.0814C91.6106 41.9543 100.39 35.1569 110.021 30.3369C116.433 27.1278 125.645 23.3767 132 28.5845" stroke="#C84630" stroke-width="5.5" stroke-linecap="round"/>
<path d="M149.134 104.976C147.234 105.362 148.085 101.043 149.058 98.4788C149.814 96.4867 150.863 95.5305 151.957 94.2873C153.68 92.3281 154.688 91.0048 156 88" stroke="#C84630" stroke-width="5.5" stroke-linecap="round"/>
<path d="M7.5 112.5C9 106 19.7722 102.63 21.5877 102.109C30.8074 99.4584 37.7504 97.0048 47 101.458" stroke="#C84630" stroke-width="5.5" stroke-linecap="round"/>
<path d="M38 106.5C38 106.5 52.1995 111.622 53.6667 112.399C59.6915 115.589 69 121.112 69 130" stroke="#C84630" stroke-width="5.5" stroke-linecap="round"/>
<path d="M8.99998 110C8.99998 110 7.59411 112.398 7.49998 113.5C6.85559 121.044 7.99794 130.437 11.9087 136.665C16.5471 144.052 22.6926 148.829 30.1374 151.755C35.2346 153.758 40.474 155.511 45 159" stroke="#C84630" stroke-width="5.5" stroke-linecap="round"/>
<path d="M39.0592 166.621C39.0592 166.621 37.3145 171.969 37.1914 173.708C36.7089 180.523 37.8267 187.885 41.0369 193.98C46.5131 204.377 57.107 212.49 66.2529 219.525" stroke="#C84630" stroke-width="5.5" stroke-linecap="round"/>
<path d="M94.4355 158.71C92.602 158.71 98.6964 163.048 99.0502 163.325C102.616 166.114 108.28 170.099 108.28 175.027" stroke="#C84630" stroke-width="5.5" stroke-linecap="round"/>
<path d="M41 34C41.1018 34.8724 42.4603 36.1329 43.0364 36.75C46.4595 40.416 49.4657 44.3502 53.2187 47.6552C60.346 53.9315 66.7004 62.5556 75 67" stroke="#C84630" stroke-width="5.5" stroke-linecap="round"/>
<path d="M3 186C3 186 13.0887 189.837 14.1247 190.23C23.1456 193.652 31.9492 197.508 40.5768 201.822" stroke="#C84630" stroke-width="5.5" stroke-linecap="round"/>
<path d="M148.801 27.9172C146.935 29.8299 148.678 28.7503 150.47 28.138C154.074 26.9065 157.738 24.8865 161 23C165.374 20.4702 169.825 17.8536 174 15" stroke="#C84630" stroke-width="5.5" stroke-linecap="round"/>
<path d="M108 243C105.108 243 102.784 242.153 100.068 241.346C92.9656 239.233 86.3248 236.156 80.6625 232.268C76.1217 229.151 72.258 225.528 68.9125 221.656C65.775 218.024 60 214.5 60 214.5" stroke="#C84630" stroke-width="5.5" stroke-linecap="round"/>
<path d="M204 166.797C207.743 165.144 211.204 163.03 215.097 161.696C220.259 159.927 229.661 159.294 234.8 161.007" stroke="#C84630" stroke-width="5.5" stroke-linecap="round"/>
<path d="M146.469 38.6497C146.994 39.3672 147.939 39.879 148.65 40.373C149.861 41.2134 151.139 41.9281 152.486 42.5247C154.293 43.3251 156.134 43.9143 158.036 44.433" stroke="#C84630" stroke-width="5.5" stroke-linecap="round"/>
<path d="M135.993 4.00036C136.793 3.93484 137.022 12.8504 136.998 13.5564C136.88 17.1709 136.287 20.8153 134.642 24.2807C134.504 24.5726 132.303 28.1907 132 27.9921" stroke="#C84630" stroke-width="5.5" stroke-linecap="round"/>
<path d="M122.435 191.416C122.435 195.487 125.454 199.55 127.914 202.516C130.325 205.423 132.817 208.034 136.003 210.128C137.926 211.392 140.08 212.283 142.043 213.46" stroke="#C84630" stroke-width="5.5" stroke-linecap="round"/>
<path d="M9 110.5C9 110.5 10.4578 108.262 11.0189 107.843C14.0985 105.546 18.6573 105.064 22.3333 104.755C25.9353 104.452 29.3834 104.385 32.9737 104.837C34.7564 105.061 38.6583 106.641 38.6583 106.641" stroke="#C84630" stroke-width="5.5" stroke-linecap="round"/>
<path d="M42 97C42 97 54.1846 94.9881 61.8 93.5C71.9538 91.5159 74.4923 88.25 75 88" stroke="#C84630" stroke-width="5" stroke-linecap="round"/>
</svg>
